<svg width="24" height="24" viewBox="0 0 24 24" fill="none" xmlns="http://www.w3.org/2000/svg">
  <g clip-path="url(#clip0_8_8)">
    <path
      d="M21.7754 6.3689C22.0381 6.82328 22.1752 7.34021 22.173 7.86658L22.13 16.2714C22.1268 16.7977 21.9852 17.3168 21.718 17.7738C21.4507 18.2309 21.0671 18.6113 20.6072 18.8768L20.6041 18.8786L13.1851 23.1184C12.755 23.3659 12.2717 23.5029 11.778 23.5218C11.7449 23.5256 11.7113 23.5281 11.6773 23.5283C11.6443 23.5285 11.6118 23.526 11.5798 23.5228C11.0848 23.5094 10.602 23.3762 10.1732 23.1321L10.1728 23.1333L2.79731 18.9691L2.79402 18.967C2.33689 18.7061 1.95809 18.3293 1.69544 17.875C1.43279 17.4206 1.29497 16.9042 1.29711 16.3778L1.29743 16.3766L1.34012 7.97299L1.34045 7.97179C1.34367 7.44541 1.48563 6.92719 1.75292 6.47013C2.02019 6.01318 2.40316 5.63306 2.86294 5.36759L2.86678 5.36537L10.285 1.12599C10.7444 0.861506 11.2644 0.720789 11.793 0.718047C12.2566 0.715699 12.7129 0.819644 13.1262 1.0205L13.3013 1.11274L20.6728 5.27525L20.6769 5.27696C21.134 5.53778 21.5128 5.91461 21.7754 6.3689ZM7.01545 5.06183L4.08159 6.73848L11.7406 11.0832L14.6799 9.39639L7.01545 5.06183ZM17.0023 10.133C16.9662 10.1571 16.9291 10.1792 16.8902 10.1978L12.6385 12.6383L12.5943 21.387L19.7093 17.3217L19.8416 17.2332C19.9672 17.137 20.0737 17.0168 20.1539 16.8798C20.2339 16.7427 20.2862 16.5921 20.3077 16.4366L20.3189 16.2803L20.36 8.20566L17.0023 10.133ZM12.3902 2.67858L12.3873 2.67719C12.2043 2.57274 11.996 2.51824 11.784 2.51931C11.5721 2.52042 11.3638 2.57668 11.1798 2.68287L11.1759 2.68509L8.84649 4.01582L16.506 8.34715L19.4437 6.66119L12.3902 2.67858Z"
      fill="currentColor" />
  </g>
  <defs>
    <clipPath id="clip0_8_8">
      <rect width="24" height="24" fill="white" />
    </clipPath>
  </defs>
</svg>
